<svg id="Group_73" data-name="Group 73" xmlns="http://www.w3.org/2000/svg" width="15.818" height="15.818" viewBox="0 0 15.818 15.818">
  <path id="Path_36" data-name="Path 36" d="M0,0H15.818V15.818H0Z" fill="none"/>
  <path id="Path_37" data-name="Path 37" d="M7.955,4.318a1.318,1.318,0,1,1,2.636,0,4.614,4.614,0,0,1,2.636,3.955V10.25a2.636,2.636,0,0,0,1.318,1.977H4A2.636,2.636,0,0,0,5.318,10.25V8.273A4.614,4.614,0,0,1,7.955,4.318" transform="translate(-1.364 -1.023)" fill="none" stroke="#c9ffec" stroke-linecap="round" stroke-linejoin="round" stroke-width="1"/>
  <path id="Path_38" data-name="Path 38" d="M9,17v.659a1.977,1.977,0,0,0,3.955,0V17" transform="translate(-3.068 -5.795)" fill="none" stroke="#c9ffec" stroke-linecap="round" stroke-linejoin="round" stroke-width="1"/>
  <path id="Path_39" data-name="Path 39" d="M20.048,5.456A7.283,7.283,0,0,0,18.206,3" transform="translate(-6.206 -1.023)" fill="none" stroke="#c9ffec" stroke-linecap="round" stroke-linejoin="round" stroke-width="1"/>
  <path id="Path_40" data-name="Path 40" d="M3,5.456A7.283,7.283,0,0,1,4.84,3" transform="translate(-1.023 -1.023)" fill="none" stroke="#c9ffec" stroke-linecap="round" stroke-linejoin="round" stroke-width="1"/>
</svg>
