<svg xmlns="http://www.w3.org/2000/svg" width="1191.068" height="1008.397" viewBox="0 0 1191.068 1008.397">
  <g id="Exclusion_6" data-name="Exclusion 6" transform="matrix(0.891, 0.454, -0.454, 0.891, -8325.744, 7927.068)" fill="none" opacity="0.1">
    <path d="M4578.985-10380a282.745,282.745,0,0,1-99.462-17.921,283.081,283.081,0,0,1-84.076-49.432,284.5,284.5,0,0,1-96.051-167.387c82.476,6.887,179.152,10.534,279.589,10.534,100.377,0,197.047-3.647,279.582-10.534v-.014a286.342,286.342,0,0,0,4.26-49.26,286.306,286.306,0,0,0-4.26-49.247c133.652,11.179,213.435,29.6,213.435,49.247,0,19.672-79.783,38.094-213.421,49.273h-.013a284.4,284.4,0,0,1-96.052,167.387,283.079,283.079,0,0,1-84.075,49.432A282.712,282.712,0,0,1,4578.985-10380ZM4299.4-10614.739h-.013c-133.612-11.18-213.375-29.6-213.375-49.273s79.77-38.068,213.389-49.247a287.573,287.573,0,0,0-4.253,49.247,287.889,287.889,0,0,0,4.253,49.26Zm559.171-98.521h-.013c-82.351-6.887-179.027-10.534-279.569-10.534-100.371,0-197.054,3.647-279.589,10.534a284.454,284.454,0,0,1,96.051-167.388,283.1,283.1,0,0,1,84.076-49.432,282.767,282.767,0,0,1,99.462-17.921,282.678,282.678,0,0,1,99.455,17.921,283.1,283.1,0,0,1,84.075,49.432,284.278,284.278,0,0,1,96.052,167.374Z" stroke="none"/>
    <path d="M 4578.9853515625 -10381 C 4613.08984375 -10381 4646.43310546875 -10387.0078125 4678.08984375 -10398.857421875 C 4708.6533203125 -10410.3037109375 4736.8408203125 -10426.8759765625 4761.8681640625 -10448.115234375 C 4811.943359375 -10490.6416015625 4845.8193359375 -10549.3828125 4857.35595703125 -10613.634765625 C 4775.0205078125 -10606.810546875 4678.80419921875 -10603.205078125 4578.9853515625 -10603.205078125 C 4479.10888671875 -10603.205078125 4382.88134765625 -10606.8115234375 4300.60791015625 -10613.634765625 C 4312.162109375 -10549.3681640625 4346.03759765625 -10490.6259765625 4396.0947265625 -10448.115234375 C 4421.12255859375 -10426.876953125 4449.31005859375 -10410.3037109375 4479.8740234375 -10398.857421875 C 4511.5302734375 -10387.0078125 4544.8759765625 -10381 4578.9853515625 -10381 M 4298.19482421875 -10615.8427734375 C 4295.505859375 -10631.705078125 4294.14306640625 -10647.904296875 4294.14306640625 -10664.0126953125 C 4294.14306640625 -10680.123046875 4295.5048828125 -10696.3125 4298.19189453125 -10712.1552734375 C 4265.69677734375 -10709.41796875 4235.97265625 -10706.2119140625 4209.81982421875 -10702.623046875 C 4183.70361328125 -10699.0390625 4161.16162109375 -10695.0751953125 4142.81982421875 -10690.841796875 C 4124.5224609375 -10686.619140625 4110.45166015625 -10682.140625 4100.998046875 -10677.5302734375 C 4096.3095703125 -10675.244140625 4092.7431640625 -10672.9130859375 4090.3984375 -10670.6025390625 C 4088.148681640625 -10668.3857421875 4087.0078125 -10666.16796875 4087.0078125 -10664.0126953125 C 4087.0078125 -10661.85546875 4088.148681640625 -10659.63671875 4090.3984375 -10657.41796875 C 4092.742919921875 -10655.10546875 4096.30908203125 -10652.7734375 4100.9970703125 -10650.4853515625 C 4110.4501953125 -10645.8720703125 4124.52001953125 -10641.390625 4142.81591796875 -10637.166015625 C 4161.1572265625 -10632.9306640625 4183.69775390625 -10628.96484375 4209.8115234375 -10625.37890625 C 4235.966796875 -10621.7880859375 4265.69775390625 -10618.580078125 4298.19482421875 -10615.8427734375 M 4859.7705078125 -10615.8427734375 C 4892.27392578125 -10618.580078125 4922.009765625 -10621.7880859375 4948.17041015625 -10625.37890625 C 4974.2900390625 -10628.96484375 4996.8359375 -10632.9306640625 5015.1806640625 -10637.166015625 C 5033.48095703125 -10641.390625 5047.55419921875 -10645.8720703125 5057.00927734375 -10650.4853515625 C 5061.69873046875 -10652.7734375 5065.265625 -10655.1064453125 5067.61083984375 -10657.41796875 C 5069.86083984375 -10659.63671875 5071.001953125 -10661.85546875 5071.001953125 -10664.0126953125 C 5071.001953125 -10666.1669921875 5069.861328125 -10668.3828125 5067.611328125 -10670.5986328125 C 5065.26611328125 -10672.908203125 5061.69873046875 -10675.2392578125 5057.00927734375 -10677.525390625 C 5047.55322265625 -10682.134765625 5033.4794921875 -10686.6142578125 5015.17919921875 -10690.8369140625 C 4996.83154296875 -10695.0712890625 4974.28466796875 -10699.0361328125 4948.1650390625 -10702.62109375 C 4922.00439453125 -10706.2109375 4892.27001953125 -10709.41796875 4859.77294921875 -10712.1552734375 C 4862.46337890625 -10696.3583984375 4863.8271484375 -10680.169921875 4863.8271484375 -10664.0126953125 C 4863.8271484375 -10647.8427734375 4862.462890625 -10631.6435546875 4859.7705078125 -10615.8427734375 M 4857.35888671875 -10714.36328125 C 4845.81787109375 -10778.6484375 4811.94140625 -10837.38671875 4761.86865234375 -10879.884765625 C 4736.8427734375 -10901.1220703125 4708.6552734375 -10917.6943359375 4678.08984375 -10929.142578125 C 4646.4375 -10940.9921875 4613.09375 -10947 4578.9853515625 -10947 C 4544.87890625 -10947 4511.53271484375 -10940.9921875 4479.8740234375 -10929.142578125 C 4449.3076171875 -10917.6943359375 4421.1201171875 -10901.1220703125 4396.09521484375 -10879.884765625 C 4346.03662109375 -10837.380859375 4312.1611328125 -10778.638671875 4300.60791015625 -10714.3642578125 C 4382.94384765625 -10721.1884765625 4479.16259765625 -10724.7939453125 4578.9853515625 -10724.7939453125 C 4678.978515625 -10724.7939453125 4775.2041015625 -10721.1875 4857.35888671875 -10714.36328125 M 4578.9853515625 -10380 C 4544.755859375 -10380 4511.2900390625 -10386.0302734375 4479.5234375 -10397.9208984375 C 4448.82958984375 -10409.416015625 4420.53857421875 -10426.060546875 4395.44775390625 -10447.3525390625 C 4344.87060546875 -10490.3056640625 4310.7666015625 -10549.7568359375 4299.396484375 -10614.7392578125 C 4381.8720703125 -10607.8525390625 4478.548828125 -10604.205078125 4578.9853515625 -10604.205078125 C 4679.3623046875 -10604.205078125 4776.0322265625 -10607.8525390625 4858.5673828125 -10614.7392578125 L 4858.5673828125 -10614.7529296875 C 4861.3916015625 -10630.8828125 4862.8271484375 -10647.4482421875 4862.8271484375 -10664.0126953125 C 4862.8271484375 -10680.564453125 4861.3916015625 -10697.1298828125 4858.5673828125 -10713.259765625 C 4992.21923828125 -10702.0810546875 5072.001953125 -10683.6591796875 5072.001953125 -10664.0126953125 C 5072.001953125 -10644.3408203125 4992.21923828125 -10625.9189453125 4858.58056640625 -10614.7392578125 L 4858.5673828125 -10614.7392578125 C 4847.2099609375 -10549.744140625 4813.0927734375 -10490.3056640625 4762.515625 -10447.3525390625 C 4737.4248046875 -10426.060546875 4709.13427734375 -10409.416015625 4678.4404296875 -10397.9208984375 C 4646.67333984375 -10386.0302734375 4613.21435546875 -10380 4578.9853515625 -10380 Z M 4299.396484375 -10614.7392578125 L 4299.38330078125 -10614.7392578125 C 4165.77099609375 -10625.9189453125 4086.0078125 -10644.3408203125 4086.0078125 -10664.0126953125 C 4086.0078125 -10683.671875 4165.77734375 -10702.0810546875 4299.396484375 -10713.259765625 C 4296.5849609375 -10697.1298828125 4295.14306640625 -10680.564453125 4295.14306640625 -10664.0126953125 C 4295.14306640625 -10647.5009765625 4296.57861328125 -10630.935546875 4299.396484375 -10614.7529296875 L 4299.396484375 -10614.7392578125 Z M 4858.5673828125 -10713.259765625 L 4858.55419921875 -10713.259765625 C 4776.20361328125 -10720.146484375 4679.52685546875 -10723.7939453125 4578.9853515625 -10723.7939453125 C 4478.61474609375 -10723.7939453125 4381.93115234375 -10720.146484375 4299.396484375 -10713.259765625 C 4310.7666015625 -10778.255859375 4344.87744140625 -10837.7080078125 4395.44775390625 -10880.6474609375 C 4420.53857421875 -10901.939453125 4448.82958984375 -10918.5830078125 4479.5234375 -10930.0791015625 C 4511.2900390625 -10941.96875 4544.755859375 -10948 4578.9853515625 -10948 C 4613.22119140625 -10948 4646.68017578125 -10941.96875 4678.4404296875 -10930.0791015625 C 4709.13427734375 -10918.5830078125 4737.4248046875 -10901.939453125 4762.515625 -10880.6474609375 C 4813.0927734375 -10837.720703125 4847.20361328125 -10778.2822265625 4858.5673828125 -10713.2734375 L 4858.5673828125 -10713.259765625 Z" stroke="none" fill="#c7e6ff"/>
  </g>
</svg>
