<svg id="Group_78" data-name="Group 78" xmlns="http://www.w3.org/2000/svg" width="22" height="22" viewBox="0 0 22 22">
  <path id="Path_45" data-name="Path 45" d="M0,0H22V22H0Z" fill="none"/>
  <path id="Path_46" data-name="Path 46" d="M4,11.875A7,7,0,0,1,10.125,18a5.25,5.25,0,0,0,2.625-4.375,7.875,7.875,0,0,0,5.25-7A2.625,2.625,0,0,0,15.375,4a7.875,7.875,0,0,0-7,5.25A5.25,5.25,0,0,0,4,11.875" fill="none" stroke="#c9ffec" stroke-linecap="round" stroke-linejoin="round" stroke-width="1.2"/>
  <path id="Path_47" data-name="Path 47" d="M7,14a6,6,0,0,0-3,6,6,6,0,0,0,6-3" transform="translate(-0.44 -1.56)" fill="none" stroke="#c9ffec" stroke-linecap="round" stroke-linejoin="round" stroke-width="1.2"/>
  <circle id="Ellipse_24" data-name="Ellipse 24" cx="1" cy="1" r="1" transform="translate(12.727 7.273)" fill="none" stroke="#c9ffec" stroke-linecap="round" stroke-linejoin="round" stroke-width="1.2"/>
</svg>
